<mxfile host="app.diagrams.net" modified="2023-04-24T17:51:50.078Z" agent="Mozilla/5.0 (Windows NT 10.0; Win64; x64) AppleWebKit/537.36 (KHTML, like Gecko) Chrome/112.0.0.0 Safari/537.36" etag="md99sZQgp3jVgaeZRV_d" version="21.2.1" type="github">
  <diagram name="Страница 1" id="pUMUKk7vh0ifozHOk4wC">
    <mxGraphModel dx="1400" dy="721" grid="1" gridSize="10" guides="1" tooltips="1" connect="1" arrows="1" fold="1" page="1" pageScale="1" pageWidth="1654" pageHeight="1169" background="#F1FAEE" math="0" shadow="0">
      <root>
        <mxCell id="0" />
        <mxCell id="1" parent="0" />
        <mxCell id="20J9mscwqWilk-XeIcK0-2" value="&lt;font color=&quot;#090d07&quot; style=&quot;font-size: 15px;&quot;&gt;Tools&lt;/font&gt;" style="rounded=0;whiteSpace=wrap;html=1;shadow=0;labelBackgroundColor=none;labelBorderColor=none;sketch=0;fillStyle=auto;strokeColor=#9673a6;strokeWidth=1;fontFamily=Verdana;fontSize=13;fillColor=#e1d5e7;fontStyle=1" vertex="1" parent="1">
          <mxGeometry x="1412" y="364" width="80" height="30" as="geometry" />
        </mxCell>
        <mxCell id="20J9mscwqWilk-XeIcK0-3" value="&lt;font color=&quot;#360000&quot; style=&quot;font-size: 10px;&quot;&gt;&lt;u&gt;name&lt;/u&gt;&lt;/font&gt;" style="ellipse;whiteSpace=wrap;html=1;rounded=0;shadow=0;labelBackgroundColor=none;labelBorderColor=none;sketch=0;fillStyle=auto;strokeColor=#36393d;strokeWidth=1;fontFamily=Verdana;fontSize=10;fillColor=#ffff88;" vertex="1" parent="1">
          <mxGeometry x="1310" y="314" width="62" height="30" as="geometry" />
        </mxCell>
        <mxCell id="20J9mscwqWilk-XeIcK0-4" value="&lt;font color=&quot;#360000&quot; style=&quot;font-size: 10px;&quot;&gt;size&lt;/font&gt;" style="ellipse;whiteSpace=wrap;html=1;rounded=0;shadow=0;labelBackgroundColor=none;labelBorderColor=none;sketch=0;fillStyle=auto;strokeColor=#36393d;strokeWidth=1;fontFamily=Verdana;fontSize=10;fillColor=#ffff88;" vertex="1" parent="1">
          <mxGeometry x="1311" y="346" width="61" height="30" as="geometry" />
        </mxCell>
        <mxCell id="20J9mscwqWilk-XeIcK0-5" value="&lt;font color=&quot;#360000&quot; style=&quot;font-size: 10px;&quot;&gt;color&lt;/font&gt;" style="ellipse;whiteSpace=wrap;html=1;rounded=0;shadow=0;labelBackgroundColor=none;labelBorderColor=none;sketch=0;fillStyle=auto;strokeColor=#36393d;strokeWidth=1;fontFamily=Verdana;fontSize=10;fillColor=#ffff88;" vertex="1" parent="1">
          <mxGeometry x="1311" y="410" width="61" height="30" as="geometry" />
        </mxCell>
        <mxCell id="20J9mscwqWilk-XeIcK0-8" value="&lt;font color=&quot;#360000&quot; style=&quot;font-size: 10px;&quot;&gt;price&lt;/font&gt;" style="ellipse;whiteSpace=wrap;html=1;rounded=0;shadow=0;labelBackgroundColor=none;labelBorderColor=none;sketch=0;fillStyle=auto;strokeColor=#36393d;strokeWidth=1;fontFamily=Verdana;fontSize=10;fillColor=#ffff88;" vertex="1" parent="1">
          <mxGeometry x="1311" y="378" width="61" height="30" as="geometry" />
        </mxCell>
        <mxCell id="20J9mscwqWilk-XeIcK0-10" value="" style="endArrow=none;html=1;rounded=0;fontFamily=Verdana;fontSize=10;fontColor=#090D07;entryX=1;entryY=0.5;entryDx=0;entryDy=0;exitX=0;exitY=0.5;exitDx=0;exitDy=0;" edge="1" parent="1" source="20J9mscwqWilk-XeIcK0-2" target="20J9mscwqWilk-XeIcK0-8">
          <mxGeometry width="50" height="50" relative="1" as="geometry">
            <mxPoint x="1357" y="417" as="sourcePoint" />
            <mxPoint x="1407" y="367" as="targetPoint" />
          </mxGeometry>
        </mxCell>
        <mxCell id="20J9mscwqWilk-XeIcK0-11" value="" style="endArrow=none;html=1;rounded=0;fontFamily=Verdana;fontSize=10;fontColor=#090D07;entryX=1;entryY=0.5;entryDx=0;entryDy=0;exitX=0;exitY=0.5;exitDx=0;exitDy=0;" edge="1" parent="1" source="20J9mscwqWilk-XeIcK0-2" target="20J9mscwqWilk-XeIcK0-5">
          <mxGeometry width="50" height="50" relative="1" as="geometry">
            <mxPoint x="1447.5" y="397" as="sourcePoint" />
            <mxPoint x="1377.5" y="374" as="targetPoint" />
          </mxGeometry>
        </mxCell>
        <mxCell id="20J9mscwqWilk-XeIcK0-15" value="" style="endArrow=none;html=1;rounded=0;fontFamily=Verdana;fontSize=10;fontColor=#090D07;entryX=1;entryY=0.5;entryDx=0;entryDy=0;exitX=0;exitY=0.5;exitDx=0;exitDy=0;" edge="1" parent="1" source="20J9mscwqWilk-XeIcK0-2" target="20J9mscwqWilk-XeIcK0-4">
          <mxGeometry width="50" height="50" relative="1" as="geometry">
            <mxPoint x="1397" y="397" as="sourcePoint" />
            <mxPoint x="1377.5" y="374" as="targetPoint" />
          </mxGeometry>
        </mxCell>
        <mxCell id="20J9mscwqWilk-XeIcK0-16" value="" style="endArrow=none;html=1;rounded=0;fontFamily=Verdana;fontSize=10;fontColor=#090D07;entryX=1;entryY=0.5;entryDx=0;entryDy=0;exitX=0;exitY=0.5;exitDx=0;exitDy=0;" edge="1" parent="1" source="20J9mscwqWilk-XeIcK0-2" target="20J9mscwqWilk-XeIcK0-3">
          <mxGeometry width="50" height="50" relative="1" as="geometry">
            <mxPoint x="1457.5" y="407" as="sourcePoint" />
            <mxPoint x="1387.5" y="384" as="targetPoint" />
          </mxGeometry>
        </mxCell>
        <mxCell id="20J9mscwqWilk-XeIcK0-20" value="&lt;font color=&quot;#090d07&quot; style=&quot;font-size: 15px;&quot;&gt;Clothes&lt;/font&gt;" style="rounded=0;whiteSpace=wrap;html=1;shadow=0;labelBackgroundColor=none;labelBorderColor=none;sketch=0;fillStyle=auto;strokeColor=#9673a6;strokeWidth=1;fontFamily=Verdana;fontSize=13;fillColor=#e1d5e7;fontStyle=1" vertex="1" parent="1">
          <mxGeometry x="1411" y="511" width="80" height="30" as="geometry" />
        </mxCell>
        <mxCell id="20J9mscwqWilk-XeIcK0-21" value="&lt;font color=&quot;#360000&quot; style=&quot;font-size: 10px;&quot;&gt;&lt;u&gt;name&lt;/u&gt;&lt;/font&gt;" style="ellipse;whiteSpace=wrap;html=1;rounded=0;shadow=0;labelBackgroundColor=none;labelBorderColor=none;sketch=0;fillStyle=auto;strokeColor=#36393d;strokeWidth=1;fontFamily=Verdana;fontSize=10;fillColor=#ffff88;" vertex="1" parent="1">
          <mxGeometry x="1311" y="463" width="60" height="30" as="geometry" />
        </mxCell>
        <mxCell id="20J9mscwqWilk-XeIcK0-22" value="&lt;font color=&quot;#360000&quot; style=&quot;font-size: 10px;&quot;&gt;team&lt;/font&gt;" style="ellipse;whiteSpace=wrap;html=1;rounded=0;shadow=0;labelBackgroundColor=none;labelBorderColor=none;sketch=0;fillStyle=auto;strokeColor=#36393d;strokeWidth=1;fontFamily=Verdana;fontSize=10;fillColor=#ffff88;" vertex="1" parent="1">
          <mxGeometry x="1310" y="495" width="61" height="30" as="geometry" />
        </mxCell>
        <mxCell id="20J9mscwqWilk-XeIcK0-23" value="&lt;font color=&quot;#360000&quot; style=&quot;font-size: 10px;&quot;&gt;season&lt;/font&gt;" style="ellipse;whiteSpace=wrap;html=1;rounded=0;shadow=0;labelBackgroundColor=none;labelBorderColor=none;sketch=0;fillStyle=auto;strokeColor=#36393d;strokeWidth=1;fontFamily=Verdana;fontSize=10;fillColor=#ffff88;" vertex="1" parent="1">
          <mxGeometry x="1310" y="559" width="61" height="30" as="geometry" />
        </mxCell>
        <mxCell id="20J9mscwqWilk-XeIcK0-24" value="&lt;font color=&quot;#360000&quot; style=&quot;font-size: 10px;&quot;&gt;color&lt;/font&gt;" style="ellipse;whiteSpace=wrap;html=1;rounded=0;shadow=0;labelBackgroundColor=none;labelBorderColor=none;sketch=0;fillStyle=auto;strokeColor=#36393d;strokeWidth=1;fontFamily=Verdana;fontSize=10;fillColor=#ffff88;" vertex="1" parent="1">
          <mxGeometry x="1310" y="527" width="61" height="30" as="geometry" />
        </mxCell>
        <mxCell id="20J9mscwqWilk-XeIcK0-25" value="" style="endArrow=none;html=1;rounded=0;fontFamily=Verdana;fontSize=10;fontColor=#090D07;entryX=1;entryY=0.5;entryDx=0;entryDy=0;exitX=0;exitY=0.5;exitDx=0;exitDy=0;" edge="1" source="20J9mscwqWilk-XeIcK0-20" target="20J9mscwqWilk-XeIcK0-24" parent="1">
          <mxGeometry width="50" height="50" relative="1" as="geometry">
            <mxPoint x="1356" y="564" as="sourcePoint" />
            <mxPoint x="1406" y="514" as="targetPoint" />
          </mxGeometry>
        </mxCell>
        <mxCell id="20J9mscwqWilk-XeIcK0-26" value="" style="endArrow=none;html=1;rounded=1;fontFamily=Helvetica;fontSize=11;fontColor=default;entryX=1;entryY=0.5;entryDx=0;entryDy=0;exitX=0;exitY=0.5;exitDx=0;exitDy=0;" edge="1" source="20J9mscwqWilk-XeIcK0-20" target="20J9mscwqWilk-XeIcK0-23" parent="1">
          <mxGeometry width="50" height="50" relative="1" as="geometry">
            <mxPoint x="1446.5" y="544" as="sourcePoint" />
            <mxPoint x="1376.5" y="521" as="targetPoint" />
          </mxGeometry>
        </mxCell>
        <mxCell id="20J9mscwqWilk-XeIcK0-27" value="" style="endArrow=none;html=1;rounded=0;fontFamily=Verdana;fontSize=10;fontColor=#090D07;entryX=1;entryY=0.5;entryDx=0;entryDy=0;exitX=0;exitY=0.5;exitDx=0;exitDy=0;" edge="1" source="20J9mscwqWilk-XeIcK0-20" target="20J9mscwqWilk-XeIcK0-22" parent="1">
          <mxGeometry width="50" height="50" relative="1" as="geometry">
            <mxPoint x="1396" y="544" as="sourcePoint" />
            <mxPoint x="1376.5" y="521" as="targetPoint" />
          </mxGeometry>
        </mxCell>
        <mxCell id="20J9mscwqWilk-XeIcK0-28" value="" style="endArrow=none;html=1;rounded=0;fontFamily=Verdana;fontSize=10;fontColor=#090D07;entryX=1;entryY=0.5;entryDx=0;entryDy=0;exitX=0;exitY=0.5;exitDx=0;exitDy=0;" edge="1" source="20J9mscwqWilk-XeIcK0-20" target="20J9mscwqWilk-XeIcK0-21" parent="1">
          <mxGeometry width="50" height="50" relative="1" as="geometry">
            <mxPoint x="1456.5" y="554" as="sourcePoint" />
            <mxPoint x="1386.5" y="531" as="targetPoint" />
          </mxGeometry>
        </mxCell>
        <mxCell id="20J9mscwqWilk-XeIcK0-29" value="&lt;font color=&quot;#360000&quot; style=&quot;font-size: 10px;&quot;&gt;size&lt;/font&gt;" style="ellipse;whiteSpace=wrap;html=1;rounded=0;shadow=0;labelBackgroundColor=none;labelBorderColor=none;sketch=0;fillStyle=auto;strokeColor=#36393d;strokeWidth=1;fontFamily=Verdana;fontSize=10;fillColor=#ffff88;" vertex="1" parent="1">
          <mxGeometry x="1310.5" y="593" width="61" height="30" as="geometry" />
        </mxCell>
        <mxCell id="20J9mscwqWilk-XeIcK0-30" value="&lt;font color=&quot;#360000&quot; style=&quot;font-size: 10px;&quot;&gt;price&lt;/font&gt;" style="ellipse;whiteSpace=wrap;html=1;rounded=0;shadow=0;labelBackgroundColor=none;labelBorderColor=none;sketch=0;fillStyle=auto;strokeColor=#36393d;strokeWidth=1;fontFamily=Verdana;fontSize=10;fillColor=#ffff88;" vertex="1" parent="1">
          <mxGeometry x="1311" y="633" width="61" height="30" as="geometry" />
        </mxCell>
        <mxCell id="20J9mscwqWilk-XeIcK0-33" value="" style="endArrow=none;html=1;rounded=0;entryX=0;entryY=0.5;entryDx=0;entryDy=0;exitX=1;exitY=0.5;exitDx=0;exitDy=0;" edge="1" parent="1" source="20J9mscwqWilk-XeIcK0-29" target="20J9mscwqWilk-XeIcK0-20">
          <mxGeometry width="50" height="50" relative="1" as="geometry">
            <mxPoint x="1361" y="623" as="sourcePoint" />
            <mxPoint x="1411" y="573" as="targetPoint" />
          </mxGeometry>
        </mxCell>
        <mxCell id="20J9mscwqWilk-XeIcK0-34" value="" style="endArrow=none;html=1;rounded=0;exitX=1;exitY=0.5;exitDx=0;exitDy=0;entryX=0;entryY=0.5;entryDx=0;entryDy=0;" edge="1" parent="1" source="20J9mscwqWilk-XeIcK0-30" target="20J9mscwqWilk-XeIcK0-20">
          <mxGeometry width="50" height="50" relative="1" as="geometry">
            <mxPoint x="1371" y="643" as="sourcePoint" />
            <mxPoint x="1411" y="523" as="targetPoint" />
          </mxGeometry>
        </mxCell>
        <mxCell id="20J9mscwqWilk-XeIcK0-45" value="&lt;font color=&quot;#090d07&quot; style=&quot;font-size: 15px;&quot;&gt;Balls&lt;/font&gt;" style="rounded=0;whiteSpace=wrap;html=1;shadow=0;labelBackgroundColor=none;labelBorderColor=none;sketch=0;fillStyle=auto;strokeColor=#9673a6;strokeWidth=1;fontFamily=Verdana;fontSize=13;fillColor=#e1d5e7;fontStyle=1" vertex="1" parent="1">
          <mxGeometry x="1401" y="238" width="80" height="30" as="geometry" />
        </mxCell>
        <mxCell id="20J9mscwqWilk-XeIcK0-46" value="&lt;font color=&quot;#360000&quot; style=&quot;font-size: 10px;&quot;&gt;&lt;u&gt;name&lt;/u&gt;&lt;/font&gt;" style="ellipse;whiteSpace=wrap;html=1;rounded=0;shadow=0;labelBackgroundColor=none;labelBorderColor=none;sketch=0;fillStyle=auto;strokeColor=#36393d;strokeWidth=1;fontFamily=Verdana;fontSize=10;fillColor=#ffff88;" vertex="1" parent="1">
          <mxGeometry x="1301" y="190" width="60" height="30" as="geometry" />
        </mxCell>
        <mxCell id="20J9mscwqWilk-XeIcK0-47" value="&lt;font color=&quot;#360000&quot; style=&quot;font-size: 10px;&quot;&gt;size&lt;/font&gt;" style="ellipse;whiteSpace=wrap;html=1;rounded=0;shadow=0;labelBackgroundColor=none;labelBorderColor=none;sketch=0;fillStyle=auto;strokeColor=#36393d;strokeWidth=1;fontFamily=Verdana;fontSize=10;fillColor=#ffff88;" vertex="1" parent="1">
          <mxGeometry x="1300" y="222" width="61" height="30" as="geometry" />
        </mxCell>
        <mxCell id="20J9mscwqWilk-XeIcK0-48" value="&lt;font color=&quot;#360000&quot; style=&quot;font-size: 10px;&quot;&gt;price&lt;/font&gt;" style="ellipse;whiteSpace=wrap;html=1;rounded=0;shadow=0;labelBackgroundColor=none;labelBorderColor=none;sketch=0;fillStyle=auto;strokeColor=#36393d;strokeWidth=1;fontFamily=Verdana;fontSize=10;fillColor=#ffff88;" vertex="1" parent="1">
          <mxGeometry x="1300" y="254" width="61" height="30" as="geometry" />
        </mxCell>
        <mxCell id="20J9mscwqWilk-XeIcK0-49" value="" style="endArrow=none;html=1;rounded=0;fontFamily=Verdana;fontSize=10;fontColor=#090D07;entryX=1;entryY=0.5;entryDx=0;entryDy=0;exitX=0;exitY=0.5;exitDx=0;exitDy=0;" edge="1" source="20J9mscwqWilk-XeIcK0-45" target="20J9mscwqWilk-XeIcK0-48" parent="1">
          <mxGeometry width="50" height="50" relative="1" as="geometry">
            <mxPoint x="1346" y="291" as="sourcePoint" />
            <mxPoint x="1396" y="241" as="targetPoint" />
          </mxGeometry>
        </mxCell>
        <mxCell id="20J9mscwqWilk-XeIcK0-50" value="" style="endArrow=none;html=1;rounded=0;fontFamily=Verdana;fontSize=10;fontColor=#090D07;entryX=1;entryY=0.5;entryDx=0;entryDy=0;exitX=0;exitY=0.5;exitDx=0;exitDy=0;" edge="1" source="20J9mscwqWilk-XeIcK0-45" target="20J9mscwqWilk-XeIcK0-47" parent="1">
          <mxGeometry width="50" height="50" relative="1" as="geometry">
            <mxPoint x="1386" y="271" as="sourcePoint" />
            <mxPoint x="1366.5" y="248" as="targetPoint" />
          </mxGeometry>
        </mxCell>
        <mxCell id="20J9mscwqWilk-XeIcK0-51" value="" style="endArrow=none;html=1;rounded=0;fontFamily=Verdana;fontSize=10;fontColor=#090D07;entryX=1;entryY=0.5;entryDx=0;entryDy=0;exitX=0;exitY=0.5;exitDx=0;exitDy=0;" edge="1" source="20J9mscwqWilk-XeIcK0-45" target="20J9mscwqWilk-XeIcK0-46" parent="1">
          <mxGeometry width="50" height="50" relative="1" as="geometry">
            <mxPoint x="1446.5" y="281" as="sourcePoint" />
            <mxPoint x="1376.5" y="258" as="targetPoint" />
          </mxGeometry>
        </mxCell>
        <mxCell id="20J9mscwqWilk-XeIcK0-52" value="&lt;font color=&quot;#090d07&quot; style=&quot;font-size: 15px;&quot;&gt;Boots&lt;/font&gt;" style="rounded=0;whiteSpace=wrap;html=1;shadow=0;labelBackgroundColor=none;labelBorderColor=none;sketch=0;fillStyle=auto;strokeColor=#9673a6;strokeWidth=1;fontFamily=Verdana;fontSize=13;fillColor=#e1d5e7;fontStyle=1" vertex="1" parent="1">
          <mxGeometry x="1402" y="80" width="80" height="30" as="geometry" />
        </mxCell>
        <mxCell id="20J9mscwqWilk-XeIcK0-53" value="&lt;font color=&quot;#360000&quot; style=&quot;font-size: 10px;&quot;&gt;&lt;u&gt;brand&lt;/u&gt;&lt;/font&gt;" style="ellipse;whiteSpace=wrap;html=1;rounded=0;shadow=0;labelBackgroundColor=none;labelBorderColor=none;sketch=0;fillStyle=auto;strokeColor=#36393d;strokeWidth=1;fontFamily=Verdana;fontSize=10;fillColor=#ffff88;" vertex="1" parent="1">
          <mxGeometry x="1302" y="32" width="60" height="30" as="geometry" />
        </mxCell>
        <mxCell id="20J9mscwqWilk-XeIcK0-54" value="&lt;font color=&quot;#360000&quot; style=&quot;font-size: 10px;&quot;&gt;size&lt;/font&gt;" style="ellipse;whiteSpace=wrap;html=1;rounded=0;shadow=0;labelBackgroundColor=none;labelBorderColor=none;sketch=0;fillStyle=auto;strokeColor=#36393d;strokeWidth=1;fontFamily=Verdana;fontSize=10;fillColor=#ffff88;" vertex="1" parent="1">
          <mxGeometry x="1301" y="64" width="61" height="30" as="geometry" />
        </mxCell>
        <mxCell id="20J9mscwqWilk-XeIcK0-55" value="&lt;font color=&quot;#360000&quot; style=&quot;font-size: 10px;&quot;&gt;color&lt;/font&gt;" style="ellipse;whiteSpace=wrap;html=1;rounded=0;shadow=0;labelBackgroundColor=none;labelBorderColor=none;sketch=0;fillStyle=auto;strokeColor=#36393d;strokeWidth=1;fontFamily=Verdana;fontSize=10;fillColor=#ffff88;" vertex="1" parent="1">
          <mxGeometry x="1301" y="128" width="61" height="30" as="geometry" />
        </mxCell>
        <mxCell id="20J9mscwqWilk-XeIcK0-56" value="&lt;font color=&quot;#360000&quot; style=&quot;font-size: 10px;&quot;&gt;price&lt;/font&gt;" style="ellipse;whiteSpace=wrap;html=1;rounded=0;shadow=0;labelBackgroundColor=none;labelBorderColor=none;sketch=0;fillStyle=auto;strokeColor=#36393d;strokeWidth=1;fontFamily=Verdana;fontSize=10;fillColor=#ffff88;" vertex="1" parent="1">
          <mxGeometry x="1301" y="96" width="61" height="30" as="geometry" />
        </mxCell>
        <mxCell id="20J9mscwqWilk-XeIcK0-57" value="" style="endArrow=none;html=1;rounded=0;fontFamily=Verdana;fontSize=10;fontColor=#090D07;entryX=1;entryY=0.5;entryDx=0;entryDy=0;exitX=0;exitY=0.5;exitDx=0;exitDy=0;" edge="1" source="20J9mscwqWilk-XeIcK0-52" target="20J9mscwqWilk-XeIcK0-56" parent="1">
          <mxGeometry width="50" height="50" relative="1" as="geometry">
            <mxPoint x="1347" y="133" as="sourcePoint" />
            <mxPoint x="1397" y="83" as="targetPoint" />
          </mxGeometry>
        </mxCell>
        <mxCell id="20J9mscwqWilk-XeIcK0-58" value="" style="endArrow=none;html=1;rounded=1;fontFamily=Helvetica;fontSize=11;fontColor=default;entryX=1;entryY=0.5;entryDx=0;entryDy=0;exitX=0;exitY=0.5;exitDx=0;exitDy=0;" edge="1" source="20J9mscwqWilk-XeIcK0-52" target="20J9mscwqWilk-XeIcK0-55" parent="1">
          <mxGeometry width="50" height="50" relative="1" as="geometry">
            <mxPoint x="1437.5" y="113" as="sourcePoint" />
            <mxPoint x="1367.5" y="90" as="targetPoint" />
          </mxGeometry>
        </mxCell>
        <mxCell id="20J9mscwqWilk-XeIcK0-59" value="" style="endArrow=none;html=1;rounded=0;fontFamily=Verdana;fontSize=10;fontColor=#090D07;entryX=1;entryY=0.5;entryDx=0;entryDy=0;exitX=0;exitY=0.5;exitDx=0;exitDy=0;" edge="1" source="20J9mscwqWilk-XeIcK0-52" target="20J9mscwqWilk-XeIcK0-54" parent="1">
          <mxGeometry width="50" height="50" relative="1" as="geometry">
            <mxPoint x="1387" y="113" as="sourcePoint" />
            <mxPoint x="1367.5" y="90" as="targetPoint" />
          </mxGeometry>
        </mxCell>
        <mxCell id="20J9mscwqWilk-XeIcK0-60" value="" style="endArrow=none;html=1;rounded=0;fontFamily=Verdana;fontSize=10;fontColor=#090D07;entryX=1;entryY=0.5;entryDx=0;entryDy=0;exitX=0;exitY=0.5;exitDx=0;exitDy=0;" edge="1" source="20J9mscwqWilk-XeIcK0-52" target="20J9mscwqWilk-XeIcK0-53" parent="1">
          <mxGeometry width="50" height="50" relative="1" as="geometry">
            <mxPoint x="1447.5" y="123" as="sourcePoint" />
            <mxPoint x="1377.5" y="100" as="targetPoint" />
          </mxGeometry>
        </mxCell>
        <mxCell id="20J9mscwqWilk-XeIcK0-108" style="edgeStyle=orthogonalEdgeStyle;rounded=0;orthogonalLoop=1;jettySize=auto;html=1;exitX=1;exitY=0.5;exitDx=0;exitDy=0;entryX=0;entryY=0.5;entryDx=0;entryDy=0;entryPerimeter=0;" edge="1" parent="1" source="20J9mscwqWilk-XeIcK0-61" target="20J9mscwqWilk-XeIcK0-106">
          <mxGeometry relative="1" as="geometry">
            <Array as="points">
              <mxPoint x="851" y="354" />
            </Array>
          </mxGeometry>
        </mxCell>
        <mxCell id="20J9mscwqWilk-XeIcK0-61" value="&lt;font color=&quot;#090d07&quot; style=&quot;font-size: 13px;&quot;&gt;Consumer&lt;/font&gt;" style="rounded=0;whiteSpace=wrap;html=1;shadow=0;labelBackgroundColor=none;labelBorderColor=none;sketch=0;fillStyle=auto;strokeColor=#9673a6;strokeWidth=1;fontFamily=Verdana;fontSize=13;fillColor=#e1d5e7;fontStyle=1" vertex="1" parent="1">
          <mxGeometry x="771" y="339" width="80" height="30" as="geometry" />
        </mxCell>
        <mxCell id="20J9mscwqWilk-XeIcK0-62" value="&lt;font color=&quot;#360000&quot; style=&quot;font-size: 10px;&quot;&gt;&lt;u&gt;Con_id&lt;/u&gt;&lt;/font&gt;" style="ellipse;whiteSpace=wrap;html=1;rounded=0;shadow=0;labelBackgroundColor=none;labelBorderColor=none;sketch=0;fillStyle=auto;strokeColor=#36393d;strokeWidth=1;fontFamily=Verdana;fontSize=10;fillColor=#ffff88;" vertex="1" parent="1">
          <mxGeometry x="671" y="299" width="60" height="30" as="geometry" />
        </mxCell>
        <mxCell id="20J9mscwqWilk-XeIcK0-63" value="&lt;font color=&quot;#360000&quot; style=&quot;font-size: 10px;&quot;&gt;name&lt;/font&gt;" style="ellipse;whiteSpace=wrap;html=1;rounded=0;shadow=0;labelBackgroundColor=none;labelBorderColor=none;sketch=0;fillStyle=auto;strokeColor=#36393d;strokeWidth=1;fontFamily=Verdana;fontSize=10;fillColor=#ffff88;" vertex="1" parent="1">
          <mxGeometry x="670" y="331" width="61" height="30" as="geometry" />
        </mxCell>
        <mxCell id="20J9mscwqWilk-XeIcK0-64" value="&lt;p style=&quot;line-height: 90%;&quot;&gt;&lt;font color=&quot;#360000&quot; style=&quot;font-size: 7px;&quot;&gt;total_&lt;br&gt;payment&lt;/font&gt;&lt;/p&gt;" style="ellipse;whiteSpace=wrap;html=1;rounded=0;shadow=0;labelBackgroundColor=none;labelBorderColor=none;sketch=0;fillStyle=auto;strokeColor=#36393d;strokeWidth=1;fontFamily=Verdana;fontSize=10;fillColor=#ffff88;" vertex="1" parent="1">
          <mxGeometry x="670" y="395" width="61" height="30" as="geometry" />
        </mxCell>
        <mxCell id="20J9mscwqWilk-XeIcK0-65" value="&lt;font color=&quot;#360000&quot; style=&quot;font-size: 10px;&quot;&gt;surname&lt;/font&gt;" style="ellipse;whiteSpace=wrap;html=1;rounded=0;shadow=0;labelBackgroundColor=none;labelBorderColor=none;sketch=0;fillStyle=auto;strokeColor=#36393d;strokeWidth=1;fontFamily=Verdana;fontSize=10;fillColor=#ffff88;" vertex="1" parent="1">
          <mxGeometry x="670" y="363" width="61" height="30" as="geometry" />
        </mxCell>
        <mxCell id="20J9mscwqWilk-XeIcK0-66" value="" style="endArrow=none;html=1;rounded=0;fontFamily=Verdana;fontSize=10;fontColor=#090D07;entryX=1;entryY=0.5;entryDx=0;entryDy=0;exitX=0;exitY=0.5;exitDx=0;exitDy=0;" edge="1" source="20J9mscwqWilk-XeIcK0-61" target="20J9mscwqWilk-XeIcK0-65" parent="1">
          <mxGeometry width="50" height="50" relative="1" as="geometry">
            <mxPoint x="716" y="400" as="sourcePoint" />
            <mxPoint x="766" y="350" as="targetPoint" />
          </mxGeometry>
        </mxCell>
        <mxCell id="20J9mscwqWilk-XeIcK0-67" value="" style="endArrow=none;html=1;rounded=1;fontFamily=Helvetica;fontSize=11;fontColor=default;entryX=1;entryY=0.5;entryDx=0;entryDy=0;exitX=0;exitY=0.5;exitDx=0;exitDy=0;" edge="1" source="20J9mscwqWilk-XeIcK0-61" target="20J9mscwqWilk-XeIcK0-64" parent="1">
          <mxGeometry width="50" height="50" relative="1" as="geometry">
            <mxPoint x="806.5" y="380" as="sourcePoint" />
            <mxPoint x="736.5" y="357" as="targetPoint" />
          </mxGeometry>
        </mxCell>
        <mxCell id="20J9mscwqWilk-XeIcK0-68" value="" style="endArrow=none;html=1;rounded=0;fontFamily=Verdana;fontSize=10;fontColor=#090D07;entryX=1;entryY=0.5;entryDx=0;entryDy=0;exitX=0;exitY=0.5;exitDx=0;exitDy=0;" edge="1" source="20J9mscwqWilk-XeIcK0-61" target="20J9mscwqWilk-XeIcK0-63" parent="1">
          <mxGeometry width="50" height="50" relative="1" as="geometry">
            <mxPoint x="756" y="380" as="sourcePoint" />
            <mxPoint x="736.5" y="357" as="targetPoint" />
          </mxGeometry>
        </mxCell>
        <mxCell id="20J9mscwqWilk-XeIcK0-69" value="" style="endArrow=none;html=1;rounded=0;fontFamily=Verdana;fontSize=10;fontColor=#090D07;entryX=1;entryY=0.5;entryDx=0;entryDy=0;exitX=0;exitY=0.5;exitDx=0;exitDy=0;" edge="1" source="20J9mscwqWilk-XeIcK0-61" target="20J9mscwqWilk-XeIcK0-62" parent="1">
          <mxGeometry width="50" height="50" relative="1" as="geometry">
            <mxPoint x="816.5" y="390" as="sourcePoint" />
            <mxPoint x="746.5" y="367" as="targetPoint" />
          </mxGeometry>
        </mxCell>
        <mxCell id="20J9mscwqWilk-XeIcK0-70" value="&lt;font color=&quot;#360000&quot; style=&quot;font-size: 10px;&quot;&gt;phone&lt;/font&gt;" style="ellipse;whiteSpace=wrap;html=1;rounded=0;shadow=0;labelBackgroundColor=none;labelBorderColor=none;sketch=0;fillStyle=auto;strokeColor=#36393d;strokeWidth=1;fontFamily=Verdana;fontSize=10;fillColor=#ffff88;" vertex="1" parent="1">
          <mxGeometry x="670.5" y="429" width="61" height="30" as="geometry" />
        </mxCell>
        <mxCell id="20J9mscwqWilk-XeIcK0-72" value="" style="endArrow=none;html=1;rounded=0;entryX=0;entryY=0.5;entryDx=0;entryDy=0;exitX=1;exitY=0.5;exitDx=0;exitDy=0;" edge="1" source="20J9mscwqWilk-XeIcK0-70" target="20J9mscwqWilk-XeIcK0-61" parent="1">
          <mxGeometry width="50" height="50" relative="1" as="geometry">
            <mxPoint x="721" y="459" as="sourcePoint" />
            <mxPoint x="771" y="409" as="targetPoint" />
          </mxGeometry>
        </mxCell>
        <mxCell id="20J9mscwqWilk-XeIcK0-125" style="edgeStyle=orthogonalEdgeStyle;rounded=0;orthogonalLoop=1;jettySize=auto;html=1;exitX=1;exitY=0.5;exitDx=0;exitDy=0;entryX=0.5;entryY=0;entryDx=0;entryDy=0;" edge="1" parent="1" source="20J9mscwqWilk-XeIcK0-74" target="20J9mscwqWilk-XeIcK0-85">
          <mxGeometry relative="1" as="geometry" />
        </mxCell>
        <mxCell id="20J9mscwqWilk-XeIcK0-74" value="&lt;font color=&quot;#090d07&quot; style=&quot;font-size: 13px;&quot;&gt;Payment&lt;/font&gt;" style="rounded=0;whiteSpace=wrap;html=1;shadow=0;labelBackgroundColor=none;labelBorderColor=none;sketch=0;fillStyle=auto;strokeColor=#9673a6;strokeWidth=1;fontFamily=Verdana;fontSize=13;fillColor=#e1d5e7;fontStyle=1" vertex="1" parent="1">
          <mxGeometry x="1041.5" y="96" width="80" height="30" as="geometry" />
        </mxCell>
        <mxCell id="20J9mscwqWilk-XeIcK0-75" value="&lt;font color=&quot;#360000&quot; style=&quot;font-size: 10px;&quot;&gt;&lt;u&gt;date&lt;/u&gt;&lt;/font&gt;" style="ellipse;whiteSpace=wrap;html=1;rounded=0;shadow=0;labelBackgroundColor=none;labelBorderColor=none;sketch=0;fillStyle=auto;strokeColor=#36393d;strokeWidth=1;fontFamily=Verdana;fontSize=10;fillColor=#ffff88;" vertex="1" parent="1">
          <mxGeometry x="941.5" y="48" width="60" height="30" as="geometry" />
        </mxCell>
        <mxCell id="20J9mscwqWilk-XeIcK0-76" value="&lt;font color=&quot;#360000&quot; style=&quot;font-size: 10px;&quot;&gt;total price&lt;/font&gt;" style="ellipse;whiteSpace=wrap;html=1;rounded=0;shadow=0;labelBackgroundColor=none;labelBorderColor=none;sketch=0;fillStyle=auto;strokeColor=#36393d;strokeWidth=1;fontFamily=Verdana;fontSize=10;fillColor=#ffff88;" vertex="1" parent="1">
          <mxGeometry x="940.5" y="80" width="61" height="30" as="geometry" />
        </mxCell>
        <mxCell id="20J9mscwqWilk-XeIcK0-77" value="&lt;p style=&quot;line-height: 90%;&quot;&gt;&lt;font color=&quot;#360000&quot;&gt;&lt;span style=&quot;&quot;&gt;things&lt;/span&gt;&lt;/font&gt;&lt;/p&gt;" style="ellipse;whiteSpace=wrap;html=1;rounded=0;shadow=0;labelBackgroundColor=none;labelBorderColor=none;sketch=0;fillStyle=auto;strokeColor=#36393d;strokeWidth=1;fontFamily=Verdana;fontSize=10;fillColor=#ffff88;" vertex="1" parent="1">
          <mxGeometry x="940.5" y="144" width="61" height="30" as="geometry" />
        </mxCell>
        <mxCell id="20J9mscwqWilk-XeIcK0-78" value="&lt;font color=&quot;#360000&quot; style=&quot;font-size: 10px;&quot;&gt;consumer&lt;/font&gt;" style="ellipse;whiteSpace=wrap;html=1;rounded=0;shadow=0;labelBackgroundColor=none;labelBorderColor=none;sketch=0;fillStyle=auto;strokeColor=#36393d;strokeWidth=1;fontFamily=Verdana;fontSize=10;fillColor=#ffff88;" vertex="1" parent="1">
          <mxGeometry x="940.5" y="112" width="61" height="30" as="geometry" />
        </mxCell>
        <mxCell id="20J9mscwqWilk-XeIcK0-79" value="" style="endArrow=none;html=1;rounded=0;fontFamily=Verdana;fontSize=10;fontColor=#090D07;entryX=1;entryY=0.5;entryDx=0;entryDy=0;exitX=0;exitY=0.5;exitDx=0;exitDy=0;" edge="1" source="20J9mscwqWilk-XeIcK0-74" target="20J9mscwqWilk-XeIcK0-78" parent="1">
          <mxGeometry width="50" height="50" relative="1" as="geometry">
            <mxPoint x="986.5" y="149" as="sourcePoint" />
            <mxPoint x="1036.5" y="99" as="targetPoint" />
          </mxGeometry>
        </mxCell>
        <mxCell id="20J9mscwqWilk-XeIcK0-80" value="" style="endArrow=none;html=1;rounded=1;fontFamily=Helvetica;fontSize=11;fontColor=default;entryX=1;entryY=0.5;entryDx=0;entryDy=0;exitX=0;exitY=0.5;exitDx=0;exitDy=0;" edge="1" source="20J9mscwqWilk-XeIcK0-74" target="20J9mscwqWilk-XeIcK0-77" parent="1">
          <mxGeometry width="50" height="50" relative="1" as="geometry">
            <mxPoint x="1077" y="129" as="sourcePoint" />
            <mxPoint x="1007" y="106" as="targetPoint" />
          </mxGeometry>
        </mxCell>
        <mxCell id="20J9mscwqWilk-XeIcK0-81" value="" style="endArrow=none;html=1;rounded=0;fontFamily=Verdana;fontSize=10;fontColor=#090D07;entryX=1;entryY=0.5;entryDx=0;entryDy=0;exitX=0;exitY=0.5;exitDx=0;exitDy=0;" edge="1" source="20J9mscwqWilk-XeIcK0-74" target="20J9mscwqWilk-XeIcK0-76" parent="1">
          <mxGeometry width="50" height="50" relative="1" as="geometry">
            <mxPoint x="1026.5" y="129" as="sourcePoint" />
            <mxPoint x="1007" y="106" as="targetPoint" />
          </mxGeometry>
        </mxCell>
        <mxCell id="20J9mscwqWilk-XeIcK0-82" value="" style="endArrow=none;html=1;rounded=0;fontFamily=Verdana;fontSize=10;fontColor=#090D07;entryX=1;entryY=0.5;entryDx=0;entryDy=0;exitX=0;exitY=0.5;exitDx=0;exitDy=0;" edge="1" source="20J9mscwqWilk-XeIcK0-74" target="20J9mscwqWilk-XeIcK0-75" parent="1">
          <mxGeometry width="50" height="50" relative="1" as="geometry">
            <mxPoint x="1087" y="139" as="sourcePoint" />
            <mxPoint x="1017" y="116" as="targetPoint" />
          </mxGeometry>
        </mxCell>
        <mxCell id="20J9mscwqWilk-XeIcK0-83" value="&lt;font color=&quot;#360000&quot; style=&quot;font-size: 10px;&quot;&gt;pay type&lt;/font&gt;" style="ellipse;whiteSpace=wrap;html=1;rounded=0;shadow=0;labelBackgroundColor=none;labelBorderColor=none;sketch=0;fillStyle=auto;strokeColor=#36393d;strokeWidth=1;fontFamily=Verdana;fontSize=10;fillColor=#ffff88;" vertex="1" parent="1">
          <mxGeometry x="941" y="178" width="61" height="30" as="geometry" />
        </mxCell>
        <mxCell id="20J9mscwqWilk-XeIcK0-84" value="" style="endArrow=none;html=1;rounded=0;entryX=0;entryY=0.5;entryDx=0;entryDy=0;exitX=1;exitY=0.5;exitDx=0;exitDy=0;" edge="1" source="20J9mscwqWilk-XeIcK0-83" target="20J9mscwqWilk-XeIcK0-74" parent="1">
          <mxGeometry width="50" height="50" relative="1" as="geometry">
            <mxPoint x="991.5" y="208" as="sourcePoint" />
            <mxPoint x="1041.5" y="158" as="targetPoint" />
          </mxGeometry>
        </mxCell>
        <mxCell id="20J9mscwqWilk-XeIcK0-85" value="&lt;font color=&quot;#090d07&quot;&gt;AFF&lt;/font&gt;" style="rounded=0;whiteSpace=wrap;html=1;shadow=0;labelBackgroundColor=none;labelBorderColor=none;sketch=0;fillStyle=auto;strokeColor=#9673a6;strokeWidth=1;fontFamily=Verdana;fontSize=13;fillColor=#e1d5e7;fontStyle=1" vertex="1" parent="1">
          <mxGeometry x="1101" y="633" width="80" height="30" as="geometry" />
        </mxCell>
        <mxCell id="20J9mscwqWilk-XeIcK0-86" value="&lt;font color=&quot;#360000&quot; style=&quot;font-size: 10px;&quot;&gt;&lt;u&gt;name&lt;/u&gt;&lt;/font&gt;" style="ellipse;whiteSpace=wrap;html=1;rounded=0;shadow=0;labelBackgroundColor=none;labelBorderColor=none;sketch=0;fillStyle=auto;strokeColor=#36393d;strokeWidth=1;fontFamily=Verdana;fontSize=10;fillColor=#ffff88;" vertex="1" parent="1">
          <mxGeometry x="1001" y="585" width="60" height="30" as="geometry" />
        </mxCell>
        <mxCell id="20J9mscwqWilk-XeIcK0-87" value="&lt;font color=&quot;#360000&quot;&gt;site_link&lt;/font&gt;" style="ellipse;whiteSpace=wrap;html=1;rounded=0;shadow=0;labelBackgroundColor=none;labelBorderColor=none;sketch=0;fillStyle=auto;strokeColor=#36393d;strokeWidth=1;fontFamily=Verdana;fontSize=10;fillColor=#ffff88;" vertex="1" parent="1">
          <mxGeometry x="1000" y="617" width="61" height="30" as="geometry" />
        </mxCell>
        <mxCell id="20J9mscwqWilk-XeIcK0-89" value="&lt;font color=&quot;#360000&quot; style=&quot;font-size: 10px;&quot;&gt;income&lt;/font&gt;" style="ellipse;whiteSpace=wrap;html=1;rounded=0;shadow=0;labelBackgroundColor=none;labelBorderColor=none;sketch=0;fillStyle=auto;strokeColor=#36393d;strokeWidth=1;fontFamily=Verdana;fontSize=10;fillColor=#ffff88;" vertex="1" parent="1">
          <mxGeometry x="1000" y="649" width="61" height="30" as="geometry" />
        </mxCell>
        <mxCell id="20J9mscwqWilk-XeIcK0-90" value="" style="endArrow=none;html=1;rounded=0;fontFamily=Verdana;fontSize=10;fontColor=#090D07;entryX=1;entryY=0.5;entryDx=0;entryDy=0;exitX=0;exitY=0.5;exitDx=0;exitDy=0;" edge="1" source="20J9mscwqWilk-XeIcK0-85" target="20J9mscwqWilk-XeIcK0-89" parent="1">
          <mxGeometry width="50" height="50" relative="1" as="geometry">
            <mxPoint x="1046" y="686" as="sourcePoint" />
            <mxPoint x="1096" y="636" as="targetPoint" />
          </mxGeometry>
        </mxCell>
        <mxCell id="20J9mscwqWilk-XeIcK0-92" value="" style="endArrow=none;html=1;rounded=0;fontFamily=Verdana;fontSize=10;fontColor=#090D07;entryX=1;entryY=0.5;entryDx=0;entryDy=0;exitX=0;exitY=0.5;exitDx=0;exitDy=0;" edge="1" source="20J9mscwqWilk-XeIcK0-85" target="20J9mscwqWilk-XeIcK0-87" parent="1">
          <mxGeometry width="50" height="50" relative="1" as="geometry">
            <mxPoint x="1086" y="666" as="sourcePoint" />
            <mxPoint x="1066.5" y="643" as="targetPoint" />
          </mxGeometry>
        </mxCell>
        <mxCell id="20J9mscwqWilk-XeIcK0-93" value="" style="endArrow=none;html=1;rounded=0;fontFamily=Verdana;fontSize=10;fontColor=#090D07;entryX=1;entryY=0.5;entryDx=0;entryDy=0;exitX=0;exitY=0.5;exitDx=0;exitDy=0;" edge="1" source="20J9mscwqWilk-XeIcK0-85" target="20J9mscwqWilk-XeIcK0-86" parent="1">
          <mxGeometry width="50" height="50" relative="1" as="geometry">
            <mxPoint x="1146.5" y="676" as="sourcePoint" />
            <mxPoint x="1076.5" y="653" as="targetPoint" />
          </mxGeometry>
        </mxCell>
        <mxCell id="20J9mscwqWilk-XeIcK0-96" value="&lt;font color=&quot;#090d07&quot;&gt;Delebiration&lt;/font&gt;" style="rounded=0;whiteSpace=wrap;html=1;shadow=0;labelBackgroundColor=none;labelBorderColor=none;sketch=0;fillStyle=auto;strokeColor=#9673a6;strokeWidth=1;fontFamily=Verdana;fontSize=13;fillColor=#e1d5e7;fontStyle=1" vertex="1" parent="1">
          <mxGeometry x="547.25" y="778" width="108.5" height="30" as="geometry" />
        </mxCell>
        <mxCell id="20J9mscwqWilk-XeIcK0-97" value="&lt;font size=&quot;1&quot; color=&quot;#360000&quot; style=&quot;&quot;&gt;&lt;u style=&quot;font-size: 9px;&quot;&gt;payment_id&lt;/u&gt;&lt;/font&gt;" style="ellipse;whiteSpace=wrap;html=1;rounded=0;shadow=0;labelBackgroundColor=none;labelBorderColor=none;sketch=0;fillStyle=auto;strokeColor=#36393d;strokeWidth=1;fontFamily=Verdana;fontSize=10;fillColor=#ffff88;" vertex="1" parent="1">
          <mxGeometry x="447.25" y="730" width="60" height="30" as="geometry" />
        </mxCell>
        <mxCell id="20J9mscwqWilk-XeIcK0-102" value="" style="endArrow=none;html=1;rounded=0;fontFamily=Verdana;fontSize=10;fontColor=#090D07;entryX=1;entryY=0.5;entryDx=0;entryDy=0;exitX=0;exitY=0.5;exitDx=0;exitDy=0;" edge="1" source="20J9mscwqWilk-XeIcK0-96" target="20J9mscwqWilk-XeIcK0-97" parent="1">
          <mxGeometry width="50" height="50" relative="1" as="geometry">
            <mxPoint x="592.75" y="821" as="sourcePoint" />
            <mxPoint x="522.75" y="798" as="targetPoint" />
          </mxGeometry>
        </mxCell>
        <mxCell id="20J9mscwqWilk-XeIcK0-103" value="&lt;font color=&quot;#360000&quot; style=&quot;font-size: 10px;&quot;&gt;&lt;u&gt;payment_id&lt;/u&gt;&lt;/font&gt;" style="ellipse;whiteSpace=wrap;html=1;rounded=0;shadow=0;labelBackgroundColor=none;labelBorderColor=none;sketch=0;fillStyle=auto;strokeColor=#36393d;strokeWidth=1;fontFamily=Verdana;fontSize=10;fillColor=#ffff88;" vertex="1" parent="1">
          <mxGeometry x="942" y="14" width="60" height="30" as="geometry" />
        </mxCell>
        <mxCell id="20J9mscwqWilk-XeIcK0-104" value="&lt;font color=&quot;#360000&quot; style=&quot;font-size: 10px;&quot;&gt;dele_date&lt;/font&gt;" style="ellipse;whiteSpace=wrap;html=1;rounded=0;shadow=0;labelBackgroundColor=none;labelBorderColor=none;sketch=0;fillStyle=auto;strokeColor=#36393d;strokeWidth=1;fontFamily=Verdana;fontSize=10;fillColor=#ffff88;" vertex="1" parent="1">
          <mxGeometry x="447.25" y="768" width="61" height="30" as="geometry" />
        </mxCell>
        <mxCell id="20J9mscwqWilk-XeIcK0-105" value="&lt;font color=&quot;#360000&quot; style=&quot;font-size: 10px;&quot;&gt;status&lt;/font&gt;" style="ellipse;whiteSpace=wrap;html=1;rounded=0;shadow=0;labelBackgroundColor=none;labelBorderColor=none;sketch=0;fillStyle=auto;strokeColor=#36393d;strokeWidth=1;fontFamily=Verdana;fontSize=10;fillColor=#ffff88;" vertex="1" parent="1">
          <mxGeometry x="446.25" y="808" width="61" height="30" as="geometry" />
        </mxCell>
        <mxCell id="20J9mscwqWilk-XeIcK0-128" style="edgeStyle=orthogonalEdgeStyle;rounded=0;orthogonalLoop=1;jettySize=auto;html=1;exitX=1;exitY=0.5;exitDx=0;exitDy=0;exitPerimeter=0;entryX=0.5;entryY=1;entryDx=0;entryDy=0;" edge="1" parent="1" source="20J9mscwqWilk-XeIcK0-106" target="20J9mscwqWilk-XeIcK0-52">
          <mxGeometry relative="1" as="geometry" />
        </mxCell>
        <mxCell id="20J9mscwqWilk-XeIcK0-129" style="edgeStyle=orthogonalEdgeStyle;rounded=0;orthogonalLoop=1;jettySize=auto;html=1;exitX=1;exitY=0.5;exitDx=0;exitDy=0;exitPerimeter=0;entryX=0;entryY=0.75;entryDx=0;entryDy=0;" edge="1" parent="1" source="20J9mscwqWilk-XeIcK0-106" target="20J9mscwqWilk-XeIcK0-45">
          <mxGeometry relative="1" as="geometry" />
        </mxCell>
        <mxCell id="20J9mscwqWilk-XeIcK0-130" style="edgeStyle=orthogonalEdgeStyle;rounded=0;orthogonalLoop=1;jettySize=auto;html=1;exitX=1;exitY=0.5;exitDx=0;exitDy=0;exitPerimeter=0;entryX=0;entryY=0.5;entryDx=0;entryDy=0;" edge="1" parent="1" source="20J9mscwqWilk-XeIcK0-106" target="20J9mscwqWilk-XeIcK0-2">
          <mxGeometry relative="1" as="geometry" />
        </mxCell>
        <mxCell id="20J9mscwqWilk-XeIcK0-131" style="edgeStyle=orthogonalEdgeStyle;rounded=0;orthogonalLoop=1;jettySize=auto;html=1;exitX=1;exitY=0.5;exitDx=0;exitDy=0;exitPerimeter=0;entryX=0.5;entryY=0;entryDx=0;entryDy=0;" edge="1" parent="1" source="20J9mscwqWilk-XeIcK0-106" target="20J9mscwqWilk-XeIcK0-20">
          <mxGeometry relative="1" as="geometry" />
        </mxCell>
        <mxCell id="20J9mscwqWilk-XeIcK0-106" value="&lt;font style=&quot;font-size: 12px;&quot;&gt;buys&lt;/font&gt;" style="strokeWidth=1;html=1;shape=mxgraph.flowchart.decision;whiteSpace=wrap;rounded=0;shadow=0;labelBackgroundColor=none;labelBorderColor=none;sketch=0;fillStyle=auto;strokeColor=#36393d;fontFamily=Verdana;fontSize=20;fillColor=#cdeb8b;verticalAlign=middle;connectable=1;labelPosition=center;verticalLabelPosition=middle;align=center;spacingTop=-7;" vertex="1" parent="1">
          <mxGeometry x="986" y="314" width="90" height="80" as="geometry" />
        </mxCell>
        <mxCell id="20J9mscwqWilk-XeIcK0-123" style="edgeStyle=orthogonalEdgeStyle;rounded=0;orthogonalLoop=1;jettySize=auto;html=1;exitX=1;exitY=0.5;exitDx=0;exitDy=0;entryX=0.23;entryY=0.301;entryDx=0;entryDy=0;entryPerimeter=0;" edge="1" parent="1" source="20J9mscwqWilk-XeIcK0-109" target="20J9mscwqWilk-XeIcK0-122">
          <mxGeometry relative="1" as="geometry" />
        </mxCell>
        <mxCell id="20J9mscwqWilk-XeIcK0-127" style="edgeStyle=orthogonalEdgeStyle;rounded=0;orthogonalLoop=1;jettySize=auto;html=1;exitX=1;exitY=0.5;exitDx=0;exitDy=0;entryX=1;entryY=0.5;entryDx=0;entryDy=0;" edge="1" parent="1" source="20J9mscwqWilk-XeIcK0-109" target="20J9mscwqWilk-XeIcK0-96">
          <mxGeometry relative="1" as="geometry">
            <mxPoint x="810" y="620" as="targetPoint" />
          </mxGeometry>
        </mxCell>
        <mxCell id="20J9mscwqWilk-XeIcK0-109" value="&lt;font color=&quot;#090d07&quot; style=&quot;font-size: 13px;&quot;&gt;Staff&lt;br&gt;&lt;/font&gt;" style="rounded=0;whiteSpace=wrap;html=1;shadow=0;labelBackgroundColor=none;labelBorderColor=none;sketch=0;fillStyle=auto;strokeColor=#9673a6;strokeWidth=1;fontFamily=Verdana;fontSize=13;fillColor=#e1d5e7;fontStyle=1" vertex="1" parent="1">
          <mxGeometry x="747" y="140" width="80" height="30" as="geometry" />
        </mxCell>
        <mxCell id="20J9mscwqWilk-XeIcK0-110" value="&lt;font color=&quot;#360000&quot; style=&quot;font-size: 10px;&quot;&gt;&lt;u&gt;name&lt;/u&gt;&lt;/font&gt;" style="ellipse;whiteSpace=wrap;html=1;rounded=0;shadow=0;labelBackgroundColor=none;labelBorderColor=none;sketch=0;fillStyle=auto;strokeColor=#36393d;strokeWidth=1;fontFamily=Verdana;fontSize=10;fillColor=#ffff88;" vertex="1" parent="1">
          <mxGeometry x="647" y="92" width="60" height="30" as="geometry" />
        </mxCell>
        <mxCell id="20J9mscwqWilk-XeIcK0-111" value="&lt;font color=&quot;#360000&quot; style=&quot;font-size: 10px;&quot;&gt;surname&lt;/font&gt;" style="ellipse;whiteSpace=wrap;html=1;rounded=0;shadow=0;labelBackgroundColor=none;labelBorderColor=none;sketch=0;fillStyle=auto;strokeColor=#36393d;strokeWidth=1;fontFamily=Verdana;fontSize=10;fillColor=#ffff88;" vertex="1" parent="1">
          <mxGeometry x="646" y="124" width="61" height="30" as="geometry" />
        </mxCell>
        <mxCell id="20J9mscwqWilk-XeIcK0-112" value="&lt;p style=&quot;line-height: 90%;&quot;&gt;&lt;font color=&quot;#360000&quot;&gt;&lt;span style=&quot;&quot;&gt;date_of_b&lt;/span&gt;&lt;/font&gt;&lt;/p&gt;" style="ellipse;whiteSpace=wrap;html=1;rounded=0;shadow=0;labelBackgroundColor=none;labelBorderColor=none;sketch=0;fillStyle=auto;strokeColor=#36393d;strokeWidth=1;fontFamily=Verdana;fontSize=10;fillColor=#ffff88;" vertex="1" parent="1">
          <mxGeometry x="646" y="188" width="61" height="30" as="geometry" />
        </mxCell>
        <mxCell id="20J9mscwqWilk-XeIcK0-113" value="&lt;font color=&quot;#360000&quot; style=&quot;font-size: 10px;&quot;&gt;salary&lt;/font&gt;" style="ellipse;whiteSpace=wrap;html=1;rounded=0;shadow=0;labelBackgroundColor=none;labelBorderColor=none;sketch=0;fillStyle=auto;strokeColor=#36393d;strokeWidth=1;fontFamily=Verdana;fontSize=10;fillColor=#ffff88;" vertex="1" parent="1">
          <mxGeometry x="646" y="156" width="61" height="30" as="geometry" />
        </mxCell>
        <mxCell id="20J9mscwqWilk-XeIcK0-114" value="" style="endArrow=none;html=1;rounded=0;fontFamily=Verdana;fontSize=10;fontColor=#090D07;entryX=1;entryY=0.5;entryDx=0;entryDy=0;exitX=0;exitY=0.5;exitDx=0;exitDy=0;" edge="1" source="20J9mscwqWilk-XeIcK0-109" target="20J9mscwqWilk-XeIcK0-113" parent="1">
          <mxGeometry width="50" height="50" relative="1" as="geometry">
            <mxPoint x="692" y="193" as="sourcePoint" />
            <mxPoint x="742" y="143" as="targetPoint" />
          </mxGeometry>
        </mxCell>
        <mxCell id="20J9mscwqWilk-XeIcK0-115" value="" style="endArrow=none;html=1;rounded=1;fontFamily=Helvetica;fontSize=11;fontColor=default;entryX=1;entryY=0.5;entryDx=0;entryDy=0;exitX=0;exitY=0.5;exitDx=0;exitDy=0;" edge="1" source="20J9mscwqWilk-XeIcK0-109" target="20J9mscwqWilk-XeIcK0-112" parent="1">
          <mxGeometry width="50" height="50" relative="1" as="geometry">
            <mxPoint x="782.5" y="173" as="sourcePoint" />
            <mxPoint x="712.5" y="150" as="targetPoint" />
          </mxGeometry>
        </mxCell>
        <mxCell id="20J9mscwqWilk-XeIcK0-116" value="" style="endArrow=none;html=1;rounded=0;fontFamily=Verdana;fontSize=10;fontColor=#090D07;entryX=1;entryY=0.5;entryDx=0;entryDy=0;exitX=0;exitY=0.5;exitDx=0;exitDy=0;" edge="1" source="20J9mscwqWilk-XeIcK0-109" target="20J9mscwqWilk-XeIcK0-111" parent="1">
          <mxGeometry width="50" height="50" relative="1" as="geometry">
            <mxPoint x="732" y="173" as="sourcePoint" />
            <mxPoint x="712.5" y="150" as="targetPoint" />
          </mxGeometry>
        </mxCell>
        <mxCell id="20J9mscwqWilk-XeIcK0-117" value="" style="endArrow=none;html=1;rounded=0;fontFamily=Verdana;fontSize=10;fontColor=#090D07;entryX=1;entryY=0.5;entryDx=0;entryDy=0;exitX=0;exitY=0.5;exitDx=0;exitDy=0;" edge="1" source="20J9mscwqWilk-XeIcK0-109" target="20J9mscwqWilk-XeIcK0-110" parent="1">
          <mxGeometry width="50" height="50" relative="1" as="geometry">
            <mxPoint x="792.5" y="183" as="sourcePoint" />
            <mxPoint x="722.5" y="160" as="targetPoint" />
          </mxGeometry>
        </mxCell>
        <mxCell id="20J9mscwqWilk-XeIcK0-118" value="&lt;font color=&quot;#360000&quot; style=&quot;font-size: 10px;&quot;&gt;address&lt;/font&gt;" style="ellipse;whiteSpace=wrap;html=1;rounded=0;shadow=0;labelBackgroundColor=none;labelBorderColor=none;sketch=0;fillStyle=auto;strokeColor=#36393d;strokeWidth=1;fontFamily=Verdana;fontSize=10;fillColor=#ffff88;" vertex="1" parent="1">
          <mxGeometry x="646.5" y="222" width="61" height="30" as="geometry" />
        </mxCell>
        <mxCell id="20J9mscwqWilk-XeIcK0-119" value="" style="endArrow=none;html=1;rounded=0;entryX=0;entryY=0.5;entryDx=0;entryDy=0;exitX=1;exitY=0.5;exitDx=0;exitDy=0;" edge="1" source="20J9mscwqWilk-XeIcK0-118" target="20J9mscwqWilk-XeIcK0-109" parent="1">
          <mxGeometry width="50" height="50" relative="1" as="geometry">
            <mxPoint x="697" y="252" as="sourcePoint" />
            <mxPoint x="747" y="202" as="targetPoint" />
          </mxGeometry>
        </mxCell>
        <mxCell id="20J9mscwqWilk-XeIcK0-120" value="&lt;font color=&quot;#360000&quot; style=&quot;font-size: 10px;&quot;&gt;&lt;u&gt;staff_id&lt;/u&gt;&lt;/font&gt;" style="ellipse;whiteSpace=wrap;html=1;rounded=0;shadow=0;labelBackgroundColor=none;labelBorderColor=none;sketch=0;fillStyle=auto;strokeColor=#36393d;strokeWidth=1;fontFamily=Verdana;fontSize=10;fillColor=#ffff88;" vertex="1" parent="1">
          <mxGeometry x="647.5" y="58" width="60" height="30" as="geometry" />
        </mxCell>
        <mxCell id="20J9mscwqWilk-XeIcK0-121" value="&lt;font color=&quot;#360000&quot; style=&quot;font-size: 10px;&quot;&gt;address&lt;/font&gt;" style="ellipse;whiteSpace=wrap;html=1;rounded=0;shadow=0;labelBackgroundColor=none;labelBorderColor=none;sketch=0;fillStyle=auto;strokeColor=#36393d;strokeWidth=1;fontFamily=Verdana;fontSize=10;fillColor=#ffff88;" vertex="1" parent="1">
          <mxGeometry x="671" y="465" width="61" height="30" as="geometry" />
        </mxCell>
        <mxCell id="20J9mscwqWilk-XeIcK0-124" style="edgeStyle=orthogonalEdgeStyle;rounded=0;orthogonalLoop=1;jettySize=auto;html=1;exitX=1;exitY=0.5;exitDx=0;exitDy=0;exitPerimeter=0;entryX=0.5;entryY=1;entryDx=0;entryDy=0;" edge="1" parent="1" source="20J9mscwqWilk-XeIcK0-122" target="20J9mscwqWilk-XeIcK0-74">
          <mxGeometry relative="1" as="geometry" />
        </mxCell>
        <mxCell id="20J9mscwqWilk-XeIcK0-122" value="&lt;font style=&quot;font-size: 12px;&quot;&gt;have&amp;nbsp;&lt;br&gt;access&lt;br&gt;&lt;/font&gt;" style="strokeWidth=1;html=1;shape=mxgraph.flowchart.decision;whiteSpace=wrap;rounded=0;shadow=0;labelBackgroundColor=none;labelBorderColor=none;sketch=0;fillStyle=auto;strokeColor=#36393d;fontFamily=Verdana;fontSize=20;fillColor=#cdeb8b;verticalAlign=middle;connectable=1;labelPosition=center;verticalLabelPosition=middle;align=center;spacingTop=-7;" vertex="1" parent="1">
          <mxGeometry x="860" y="220" width="90" height="80" as="geometry" />
        </mxCell>
      </root>
    </mxGraphModel>
  </diagram>
</mxfile>
